<?xml version="1.0" encoding="utf-8"?>
<!-- Generator: Adobe Illustrator 25.2.3, SVG Export Plug-In . SVG Version: 6.00 Build 0)  -->
<svg version="1.1" id="Layer_1" xmlns="http://www.w3.org/2000/svg" xmlns:xlink="http://www.w3.org/1999/xlink" x="0px" y="0px"
	 viewBox="0 0 512 512" style="enable-background:new 0 0 512 512;" xml:space="preserve">
<style type="text/css">
	.st0{fill:#FFCE66;}
	.st1{fill:#FB8890;}
	.st2{fill:#FFD98C;}
</style>
<path class="st0" d="M288,16c-26.5,0-48,21.5-48,48v326.4c0,26.5,21.5,48,48,48h48c8.8,0,16-7.2,16-16V117
	c-0.3-6.9,3.1-13.5,8.8-17.4l80.1-49.5c2.1-1.4,4.6-2.1,7.1-2.1c8.8,0,16-7.2,16-16s-7.2-16-16-16L288,16L288,16z"/>
<path class="st1" d="M26.3,200.5c-6.3,5.7-10,13.7-10.3,22.2c-0.2,9.2,3.5,18.1,10.1,24.6c4.6,4.6,23.7,23.7,112,112
	c9.6,8.6,23.2,10.9,35.1,5.9c11.6-5.1,19-16.6,18.9-29.2v-32h48c26.5,0,48-21.5,48-48v-64c0-26.5-21.5-48-48-48h-48v-32
	c0-7.9-2.9-15.5-8.1-21.3c-11.8-13.2-32-14.3-45.2-2.5L26.3,200.5L26.3,200.5z"/>
<path class="st2" d="M320,117v327.5c-0.3,18.8,9.6,36.3,25.9,45.7c14.5,7.8,32,7.4,46-1l80-49.5c15.2-9.7,24.3-26.6,24.1-44.6V67.5
	c0.9-27.5-20.5-50.5-48-51.5c-8.5,0-16.8,2.4-24,6.9l-80,49.5C328.8,82,319.7,98.9,320,117z"/>
</svg>
