<?xml version="1.0" encoding="utf-8"?>
<!-- Generator: Adobe Illustrator 25.2.3, SVG Export Plug-In . SVG Version: 6.00 Build 0)  -->
<svg version="1.1" id="Layer_1" xmlns="http://www.w3.org/2000/svg" xmlns:xlink="http://www.w3.org/1999/xlink" x="0px" y="0px"
	 viewBox="0 0 512 512" style="enable-background:new 0 0 512 512;" xml:space="preserve">
<style type="text/css">
	.st0{fill:#E8F8FC;}
	.st1{fill:#A4EBFC;}
	.st2{fill:#CAF1FC;}
</style>
<path class="st0" d="M-0.2,32.9C-1.1,25.1,6.9,19.3,14,22.7l485.4,227.6c15.3,7.2,15.5,29,0.2,36.4c-29.4,14.2-182.6,88.2-165.5,80
	l-22.9,110.5c-3.4,16.6-24.6,21.8-35.4,8.6c-0.8-1.1-52.5-64.5-53-65.4c-29.4,14.2-74.1,35.8-144.5,69.8c-12.5,6-27.2-2.1-28.8-15.9
	L-0.2,32.9L-0.2,32.9z"/>
<path class="st1" d="M334.2,366.7l-22.9,110.5c-3.4,16.6-24.6,21.8-35.4,8.6c0.7,0.8-52.5-64.5-53-65.4L334.2,366.7z"/>
<path class="st2" d="M49.7,474.4c0-0.1-49.9-441.4-50-441.6c-0.6-5.7,6.6-8.8,10.6-4.6C10.1,28,334.2,366.4,334.2,366.7
	c-145.7,70.4-94.8,45.8-255.7,123.6C66,496.3,51.3,488.1,49.7,474.4L49.7,474.4z"/>
</svg>
